# xmcd
#
# Track frame offsets: 
#        150
#        17140
#        36622
#        65541
#        84727
#        99579
#        113379
#        123545
#        133029
#        159113
#        172464
#        197853
#
# Disc length: 2928 seconds
#
# Revision: 0
# Processed by: cddbd v1.5.2PL0 Copyright (c) Steve Scherf et al.
# Submitted via: ExactAudioCopy v0.95a5
#
DISCID=a90b6e0c
DTITLE=Emiliana Torrini - Me And Armini
DYEAR=2008
DGENRE=Blues
TTITLE0=Fireheads
TTITLE1=Me And Armini
TTITLE2=Birds
TTITLE3=Heard It All Before
TTITLE4=Ha Ha
TTITLE5=Big Jumps
TTITLE6=Jungle Drums
TTITLE7=Hold Heart
TTITLE8=Gun
TTITLE9=Beggar's Prayer
TTITLE10=Dead Duck
TTITLE11=Bleeder
EXTD=
EXTT0=
EXTT1=
EXTT2=
EXTT3=
EXTT4=
EXTT5=
EXTT6=
EXTT7=
EXTT8=
EXTT9=
EXTT10=
EXTT11=
PLAYORDER=
